<svg width="15" height="15" viewBox="0 0 15 15" fill="none" xmlns="http://www.w3.org/2000/svg">
<g id="Frame">
<path id="Vector" d="M7.5 4.2187V5.1562C6.65312 5.1562 5.81437 5.1912 4.985 5.25995C4.27812 5.3187 3.75 5.92058 3.75 6.62995V8.20058M7.5 5.15683C8.34688 5.15683 9.18563 5.1912 10.015 5.25995C10.7219 5.3187 11.25 5.92058 11.25 6.62995V8.20058M9.375 5.15683V4.21933M5.625 5.15683V4.21933M13.125 10.3131L12.1875 10.7818C11.8964 10.9274 11.5754 11.0031 11.25 11.0031C10.9246 11.0031 10.6036 10.9274 10.3125 10.7818C10.0214 10.6363 9.70044 10.5605 9.375 10.5605C9.04956 10.5605 8.72858 10.6363 8.4375 10.7818C8.14642 10.9274 7.82544 11.0031 7.5 11.0031C7.17456 11.0031 6.85358 10.9274 6.5625 10.7818C6.27142 10.6363 5.95044 10.5605 5.625 10.5605C5.29956 10.5605 4.97858 10.6363 4.6875 10.7818C4.39642 10.9274 4.07544 11.0031 3.75 11.0031C3.42456 11.0031 3.10358 10.9274 2.8125 10.7818L1.875 10.3125M11.25 8.19995C10.006 8.04536 8.75358 7.96813 7.5 7.9687C6.23 7.9687 4.97875 8.04683 3.75 8.19995C3.50731 8.23051 3.265 8.26406 3.02312 8.30058C2.355 8.40058 1.875 8.98433 1.875 9.65933V12.8906C1.87517 13.0769 1.94932 13.2556 2.08116 13.3874C2.21301 13.5191 2.39175 13.5931 2.57812 13.5931H12.4219C12.81 13.5931 13.125 13.2781 13.125 12.8906V9.65933C13.125 8.9837 12.6456 8.39995 11.9769 8.29995C11.7356 8.2637 11.4937 8.23058 11.25 8.19995ZM7.66563 1.9437C7.69843 1.97647 7.72078 2.01823 7.72985 2.0637C7.73892 2.10917 7.73429 2.15631 7.71656 2.19916C7.69883 2.242 7.66879 2.27862 7.63024 2.30439C7.59169 2.33015 7.54637 2.34391 7.5 2.34391C7.45363 2.34391 7.40831 2.33015 7.36976 2.30439C7.33121 2.27862 7.30117 2.242 7.28344 2.19916C7.26571 2.15631 7.26108 2.10917 7.27015 2.0637C7.27922 2.01823 7.30157 1.97647 7.33437 1.9437L7.5 1.77808L7.66563 1.9437ZM5.79063 1.9437C5.82343 1.97647 5.84578 2.01823 5.85485 2.0637C5.86392 2.10917 5.85929 2.15631 5.84156 2.19916C5.82383 2.242 5.79379 2.27862 5.75524 2.30439C5.71669 2.33015 5.67137 2.34391 5.625 2.34391C5.57863 2.34391 5.53331 2.33015 5.49476 2.30439C5.45621 2.27862 5.42617 2.242 5.40844 2.19916C5.39071 2.15631 5.38608 2.10917 5.39515 2.0637C5.40422 2.01823 5.42657 1.97647 5.45937 1.9437L5.625 1.77808L5.79063 1.9437ZM9.54063 1.9437C9.57343 1.97647 9.59578 2.01823 9.60485 2.0637C9.61392 2.10917 9.60929 2.15631 9.59156 2.19916C9.57383 2.242 9.54379 2.27862 9.50524 2.30439C9.46669 2.33015 9.42137 2.34391 9.375 2.34391C9.32863 2.34391 9.28331 2.33015 9.24476 2.30439C9.20621 2.27862 9.17617 2.242 9.15844 2.19916C9.14071 2.15631 9.13608 2.10917 9.14515 2.0637C9.15422 2.01823 9.17657 1.97647 9.20937 1.9437L9.375 1.77808L9.54063 1.9437Z" stroke="black" stroke-linecap="round" stroke-linejoin="round"/>
</g>
</svg>
