<svg width="17" height="15" viewBox="0 0 17 15" fill="none" xmlns="http://www.w3.org/2000/svg">
<path d="M1.59375 1.125H2.5755C2.93675 1.125 3.25196 1.36796 3.34546 1.71646L3.61675 2.73433M3.61675 2.73433C7.56262 2.62375 11.5047 3.0624 15.3297 4.03767C14.7461 5.77592 14.0526 7.46458 13.2586 9.09375H5.3125M3.61675 2.73433L5.3125 9.09375M5.3125 9.09375C4.74891 9.09375 4.20841 9.31763 3.8099 9.71615C3.41138 10.1147 3.1875 10.6552 3.1875 11.2187H14.3437M4.25 13.3437C4.25 13.4846 4.19403 13.6198 4.0944 13.7194C3.99477 13.819 3.85965 13.875 3.71875 13.875C3.57785 13.875 3.44273 13.819 3.3431 13.7194C3.24347 13.6198 3.1875 13.4846 3.1875 13.3437C3.1875 13.2029 3.24347 13.0677 3.3431 12.9681C3.44273 12.8685 3.57785 12.8125 3.71875 12.8125C3.85965 12.8125 3.99477 12.8685 4.0944 12.9681C4.19403 13.0677 4.25 13.2029 4.25 13.3437ZM13.2812 13.3437C13.2812 13.4846 13.2253 13.6198 13.1257 13.7194C13.026 13.819 12.8909 13.875 12.75 13.875C12.6091 13.875 12.474 13.819 12.3743 13.7194C12.2747 13.6198 12.2187 13.4846 12.2187 13.3437C12.2187 13.2029 12.2747 13.0677 12.3743 12.9681C12.474 12.8685 12.6091 12.8125 12.75 12.8125C12.8909 12.8125 13.026 12.8685 13.1257 12.9681C13.2253 13.0677 13.2812 13.2029 13.2812 13.3437Z" stroke="black" stroke-width="1.5" stroke-linecap="round" stroke-linejoin="round"/>
</svg>
